<svg xmlns="http://www.w3.org/2000/svg" version="1.1" width="3171.4285714285716" height="2646.542433861379"
     viewBox="0 0 3171.4285714285716 2646.542433861379">
			
			<g transform="scale(8.571428571428571) translate(10, 10)">
				<defs id="SvgjsDefs1268"/><g id="SvgjsG1269" featureKey="9BrRTl-0" transform="matrix(2.1283783783783785,0,0,2.1283783783783785,68.71621621621621,-21.283783783783786)" fill="#fff"><path xmlns="http://www.w3.org/2000/svg" d="M56.3666992,16.3364258C56.3666992,12.8422852,53.5107422,10,50,10s-6.3666992,2.8422852-6.3666992,6.3364258  S46.4892578,22.6733398,50,22.6733398S56.3666992,19.8305664,56.3666992,16.3364258z M45.6333008,16.3364258  C45.6333008,13.9453125,47.5922852,12,50,12s4.3666992,1.9453125,4.3666992,4.3364258  c0,2.3916016-1.9589844,4.3369141-4.3666992,4.3369141S45.6333008,18.7280273,45.6333008,16.3364258z"/><path xmlns="http://www.w3.org/2000/svg" d="M26.2270508,19.8447266c-0.0063477,0-0.012207,0-0.0185547,0c-1.6953125,0.0048828-3.2910156,0.6694336-4.4926758,1.8710938  s-1.8662109,2.7973633-1.8710938,4.4926758c-0.0048828,1.6977539,0.6523438,3.2924805,1.8500977,4.4897461  c1.1933594,1.1933594,2.7802734,1.8496094,4.4711914,1.8496094c0.0058594,0,0.012207,0,0.0180664,0  c1.6953125-0.0043945,3.2910156-0.6689453,4.4926758-1.8710938c1.2021484-1.2016602,1.8666992-2.7973633,1.8710938-4.4926758  c0.0048828-1.6972656-0.6518555-3.2919922-1.8496094-4.4892578C29.5053711,20.5014648,27.9179688,19.8447266,26.2270508,19.8447266z   M29.2626953,29.2626953c-0.8256836,0.8256836-1.9208984,1.2822266-3.0839844,1.2851562  c-1.1577148,0.0141602-2.2514648-0.4453125-3.0698242-1.2636719s-1.2675781-1.9086914-1.2641602-3.0698242  c0.003418-1.1635742,0.4599609-2.2587891,1.2851562-3.0844727c0.8256836-0.8251953,1.9208984-1.2817383,3.0844727-1.2851562  c0.0039062,0,0.0083008,0,0.012207,0c1.1567383,0,2.2421875,0.4487305,3.0576172,1.2641602  c0.8183594,0.8183594,1.2670898,1.9086914,1.2636719,3.0698242C30.5449219,27.3417969,30.0883789,28.4370117,29.2626953,29.2626953z  "/><path xmlns="http://www.w3.org/2000/svg" d="M10,50c0,3.5107422,2.8422852,6.3666992,6.3364258,6.3666992S22.6733398,53.5107422,22.6733398,50  s-2.8427734-6.3666992-6.3369141-6.3666992S10,46.4892578,10,50z M20.6733398,50  c0,2.4077148-1.9453125,4.3666992-4.3369141,4.3666992C13.9453125,54.3666992,12,52.4077148,12,50  s1.9453125-4.3666992,4.3364258-4.3666992C18.7280273,45.6333008,20.6733398,47.5922852,20.6733398,50z"/><path xmlns="http://www.w3.org/2000/svg" d="M26.2084961,80.1552734c0.0063477,0,0.012207,0,0.0185547,0c1.690918,0,3.2783203-0.6567383,4.4711914-1.8500977  c1.1977539-1.1972656,1.8544922-2.7919922,1.8496094-4.4892578c-0.0043945-1.6953125-0.6689453-3.2910156-1.8710938-4.4926758  c-1.2016602-1.2021484-2.7973633-1.8666992-4.4926758-1.8710938c-1.6542969,0.0161133-3.2919922,0.6523438-4.4892578,1.8496094  c-1.1977539,1.1972656-1.8549805,2.7919922-1.8500977,4.4897461c0.0048828,1.6953125,0.6694336,3.2910156,1.8710938,4.4926758  S24.5131836,80.1503906,26.2084961,80.1552734z M23.1088867,70.7158203  c0.8154297-0.8154297,1.9008789-1.2636719,3.0571289-1.2636719c0.0043945,0,0.0083008,0,0.0126953,0  c1.1630859,0.0029297,2.2583008,0.4594727,3.0839844,1.2851562s1.2822266,1.9208984,1.2851562,3.0839844  c0.003418,1.1611328-0.4453125,2.2514648-1.2636719,3.0698242c-0.8154297,0.8154297-1.9008789,1.2641602-3.0576172,1.2641602  c-0.0039062,0-0.0083008,0-0.012207,0c-1.1635742-0.003418-2.2587891-0.4599609-3.0844727-1.2851562  c-0.8251953-0.8256836-1.2817383-1.9208984-1.2851562-3.0844727C21.8413086,72.6245117,22.2905273,71.5341797,23.1088867,70.7158203  z"/><path xmlns="http://www.w3.org/2000/svg" d="M43.6333008,83.6635742C43.6333008,87.1577148,46.4892578,90,50,90s6.3666992-2.8422852,6.3666992-6.3364258  S53.5107422,77.3266602,50,77.3266602S43.6333008,80.1694336,43.6333008,83.6635742z M54.3666992,83.6635742  C54.3666992,86.0546875,52.4077148,88,50,88s-4.3666992-1.9453125-4.3666992-4.3364258  c0-2.3916016,1.9589844-4.3369141,4.3666992-4.3369141S54.3666992,81.2719727,54.3666992,83.6635742z"/><path xmlns="http://www.w3.org/2000/svg" d="M69.3232422,69.3232422c-1.2021484,1.2016602-1.8666992,2.7973633-1.8710938,4.4926758  c-0.0048828,1.6972656,0.6518555,3.2919922,1.8496094,4.4892578c1.1928711,1.1933594,2.7802734,1.8500977,4.4711914,1.8500977  c0.0063477,0,0.012207,0,0.0185547,0c1.6953125-0.0048828,3.2910156-0.6694336,4.4926758-1.8710938  s1.8662109-2.7973633,1.8710938-4.4926758c0.0048828-1.6977539-0.6523438-3.2924805-1.8500977-4.4897461  c-1.1972656-1.1972656-2.7548828-1.8583984-4.4892578-1.8496094C72.1206055,67.456543,70.5249023,68.1210938,69.3232422,69.3232422z   M73.8339844,69.4521484c1.15625,0,2.2416992,0.4482422,3.0571289,1.2636719  c0.8183594,0.8183594,1.2675781,1.9086914,1.2641602,3.0698242c-0.003418,1.1635742-0.4599609,2.2587891-1.2851562,3.0844727  c-0.8256836,0.8251953-1.9208984,1.2817383-3.0844727,1.2851562c-0.0039062,0-0.0083008,0-0.012207,0  c-1.1567383,0-2.2421875-0.4487305-3.0576172-1.2641602c-0.8183594-0.8183594-1.2670898-1.9086914-1.2636719-3.0698242  c0.0029297-1.1630859,0.4594727-2.2583008,1.2851562-3.0839844s1.9208984-1.2822266,3.0839844-1.2851562  C73.8256836,69.4521484,73.8295898,69.4521484,73.8339844,69.4521484z"/><path xmlns="http://www.w3.org/2000/svg" d="M83.6635742,43.6333008c-3.4941406,0-6.3369141,2.855957-6.3369141,6.3666992s2.8427734,6.3666992,6.3369141,6.3666992  S90,53.5107422,90,50S87.1577148,43.6333008,83.6635742,43.6333008z M83.6635742,54.3666992  c-2.3916016,0-4.3369141-1.9589844-4.3369141-4.3666992s1.9453125-4.3666992,4.3369141-4.3666992  C86.0546875,45.6333008,88,47.5922852,88,50S86.0546875,54.3666992,83.6635742,54.3666992z"/><path xmlns="http://www.w3.org/2000/svg" d="M73.7915039,19.8447266c-0.0063477,0-0.012207,0-0.0185547,0c-1.690918,0-3.2783203,0.6567383-4.4711914,1.8500977  c-1.1977539,1.1972656-1.8544922,2.7919922-1.8496094,4.4892578c0.0043945,1.6953125,0.6689453,3.2910156,1.8710938,4.4926758  c1.2016602,1.2021484,2.7973633,1.8666992,4.4926758,1.8710938c0.0058594,0,0.012207,0,0.0180664,0  c1.690918,0,3.2783203-0.65625,4.4711914-1.8496094c1.1977539-1.1972656,1.8549805-2.7919922,1.8500977-4.4897461  c-0.0048828-1.6953125-0.6694336-3.2910156-1.8710938-4.4926758S75.4868164,19.8496094,73.7915039,19.8447266z   M76.8911133,29.2841797c-0.8154297,0.8154297-1.9008789,1.2636719-3.0571289,1.2636719c-0.0043945,0-0.0083008,0-0.0126953,0  c-1.1630859-0.0029297-2.2583008-0.4594727-3.0839844-1.2851562s-1.2822266-1.9208984-1.2851562-3.0839844  c-0.003418-1.1611328,0.4453125-2.2514648,1.2636719-3.0698242c0.8154297-0.8154297,1.9008789-1.2641602,3.0576172-1.2641602  c0.0039062,0,0.0083008,0,0.012207,0c1.1635742,0.003418,2.2587891,0.4599609,3.0844727,1.2851562  c0.8251953,0.8256836,1.2817383,1.9208984,1.2851562,3.0844727C78.1586914,27.3754883,77.7094727,28.4658203,76.8911133,29.2841797z  "/><path xmlns="http://www.w3.org/2000/svg" d="M65.8886719,21.4545898c0.1542969,0.0864258,0.3212891,0.1269531,0.4863281,0.1269531  c0.3505859,0,0.690918-0.1845703,0.8740234-0.5126953c0.2695312-0.4824219,0.0966797-1.0913086-0.3857422-1.3603516  c-2.2021484-1.2290039-4.543457-2.2172852-6.9599609-2.9365234c-0.5288086-0.15625-1.0859375,0.144043-1.2436523,0.6733398  s0.144043,1.0859375,0.6733398,1.2436523C61.6083984,19.3666992,63.8144531,20.296875,65.8886719,21.4545898z"/><path xmlns="http://www.w3.org/2000/svg" d="M34.0727539,21.3442383c0.1606445,0,0.3237305-0.0385742,0.4750977-0.1206055  c2.0864258-1.1289062,4.3041992-2.0307617,6.5908203-2.6801758c0.53125-0.1508789,0.8398438-0.7036133,0.6889648-1.2348633  c-0.1503906-0.5317383-0.7011719-0.8378906-1.2348633-0.6889648c-2.4277344,0.6889648-4.7817383,1.6464844-6.9970703,2.8452148  c-0.4853516,0.2626953-0.6660156,0.8696289-0.4033203,1.3554688C33.3730469,21.1547852,33.7172852,21.3442383,34.0727539,21.3442383  z"/><path xmlns="http://www.w3.org/2000/svg" d="M16.8969727,39.9716797c-0.1577148,0.5292969,0.144043,1.0859375,0.6733398,1.2436523  c0.0952148,0.0283203,0.190918,0.0419922,0.2856445,0.0419922c0.4306641,0,0.8286133-0.28125,0.9580078-0.715332  c0.6777344-2.2753906,1.6079102-4.4814453,2.765625-6.5556641c0.2695312-0.4824219,0.0966797-1.0913086-0.3857422-1.3603516  c-0.4833984-0.2705078-1.0913086-0.097168-1.3603516,0.3857422C18.6044922,35.2138672,17.6162109,37.5551758,16.8969727,39.9716797z  "/><path xmlns="http://www.w3.org/2000/svg" d="M21.3486328,65.3271484c-1.1289062-2.0864258-2.0307617-4.3041992-2.6801758-6.5908203  c-0.1508789-0.5317383-0.7021484-0.8393555-1.2348633-0.6889648c-0.53125,0.1508789-0.8398438,0.7036133-0.6889648,1.2348633  c0.6889648,2.4277344,1.6464844,4.7817383,2.8452148,6.9970703c0.1806641,0.3344727,0.5249023,0.5239258,0.8803711,0.5239258  c0.1606445,0,0.3237305-0.0385742,0.4750977-0.1206055C21.4306641,66.4199219,21.6113281,65.8129883,21.3486328,65.3271484z"/><path xmlns="http://www.w3.org/2000/svg" d="M34.1113281,78.2954102c-0.4824219-0.2705078-1.0908203-0.097168-1.3603516,0.3857422  c-0.2695312,0.4824219-0.0966797,1.0913086,0.3857422,1.3603516c2.2021484,1.2290039,4.543457,2.2172852,6.9599609,2.9365234  c0.0952148,0.0283203,0.190918,0.0419922,0.2856445,0.0419922c0.4306641,0,0.8286133-0.28125,0.9580078-0.715332  c0.1577148-0.5292969-0.144043-1.0859375-0.6733398-1.2436523C38.3916016,80.3833008,36.1855469,79.453125,34.1113281,78.2954102z"/><path xmlns="http://www.w3.org/2000/svg" d="M65.4521484,78.5263672c-2.0864258,1.1289062-4.3041992,2.0307617-6.5908203,2.6801758  c-0.53125,0.1508789-0.8398438,0.7036133-0.6889648,1.2348633c0.125,0.4404297,0.5253906,0.7275391,0.9614258,0.7275391  c0.090332,0,0.1821289-0.0126953,0.2734375-0.0385742c2.4277344-0.6889648,4.7817383-1.6464844,6.9970703-2.8452148  c0.4853516-0.2626953,0.6660156-0.8696289,0.4033203-1.3554688S65.9379883,78.2626953,65.4521484,78.5263672z"/><path xmlns="http://www.w3.org/2000/svg" d="M78.8061523,67.1240234c0.1542969,0.0864258,0.3212891,0.1269531,0.4863281,0.1269531  c0.3505859,0,0.690918-0.1845703,0.8740234-0.5126953c1.2290039-2.2021484,2.2172852-4.543457,2.9365234-6.9599609  c0.1577148-0.5292969-0.144043-1.0859375-0.6733398-1.2436523c-0.5283203-0.1586914-1.0859375,0.1435547-1.2436523,0.6733398  c-0.6777344,2.2753906-1.6079102,4.4814453-2.765625,6.5556641C78.1508789,66.2460938,78.3237305,66.8549805,78.8061523,67.1240234z  "/><path xmlns="http://www.w3.org/2000/svg" d="M78.6513672,34.4228516c1.1289062,2.0864258,2.0307617,4.3041992,2.6801758,6.5908203  c0.125,0.4404297,0.5253906,0.7275391,0.9614258,0.7275391c0.090332,0,0.1821289-0.0126953,0.2734375-0.0385742  c0.53125-0.1508789,0.8398438-0.7036133,0.6889648-1.2348633c-0.6889648-2.4277344-1.6464844-4.7817383-2.8452148-6.9970703  c-0.2631836-0.4858398-0.8696289-0.668457-1.3554688-0.4033203C78.5693359,33.3300781,78.3886719,33.9370117,78.6513672,34.4228516z  "/><path xmlns="http://www.w3.org/2000/svg" d="M50,70c11.027832,0,20-8.972168,20-20s-8.972168-20-20-20s-20,8.972168-20,20S38.972168,70,50,70z M50,32  c9.925293,0,18,8.074707,18,18s-8.074707,18-18,18s-18-8.074707-18-18S40.074707,32,50,32z"/></g><g id="SvgjsG1270" featureKey="SfZL63-0" transform="matrix(4.6753940308090565,0,0,4.6753940308090565,-6.452044297572883,164.84637957919088)" fill="#fff"><path d="M4.5 5.720000000000001 l5.96 9.58 l0.04 0 l0 -9.58 l2.94 0 l0 14.28 l-3.14 0 l-5.94 -9.56 l-0.04 0 l0 9.56 l-2.94 0 l0 -14.28 l3.12 0 z M22.6 5.380000000000001 c2.1066 0 3.8034 0.7 5.09 2.1 s1.93 3.2134 1.93 5.44 c0 2.1734 -0.64666 3.9534 -1.94 5.34 s-2.9866 2.08 -5.08 2.08 c-2.1066 0 -3.8034 -0.69334 -5.09 -2.08 s-1.93 -3.1666 -1.93 -5.34 c0 -2.2134 0.64666 -4.0234 1.94 -5.43 s2.9866 -2.11 5.08 -2.11 z M18.72 12.92 c0 1.44 0.33998 2.5966 1.02 3.47 s1.6333 1.31 2.86 1.31 c1.2 0 2.1466 -0.43 2.84 -1.29 s1.04 -2.0234 1.04 -3.49 c0 -1.5333 -0.34334 -2.7334 -1.03 -3.6 s-1.6433 -1.3 -2.87 -1.3 c-1.2 0 -2.1434 0.43334 -2.83 1.3 s-1.03 2.0666 -1.03 3.6 z M36.18 5.720000000000001 l3.34 9.82 l0.04 0 l3.16 -9.82 l4.42 0 l0 14.28 l-2.94 0 l0 -10.12 l-0.04 0 l-3.5 10.12 l-2.42 0 l-3.5 -10.02 l-0.04 0 l0 10.02 l-2.94 0 l0 -14.28 l4.42 0 z M57.02 5.720000000000001 l5.34 14.28 l-3.26 0 l-1.08 -3.18 l-5.34 0 l-1.12 3.18 l-3.18 0 l5.42 -14.28 l3.22 0 z M55.36 9.24 l-1.86 5.24 l3.7 0 l-1.8 -5.24 l-0.04 0 z M69.72 5.720000000000001 c2.0266 0 3.62 0.62666 4.78 1.88 s1.74 2.98 1.74 5.18 c0 2.28 -0.58334 4.0534 -1.75 5.32 s-2.73 1.9 -4.69 1.9 l-6.2 0 l0 -14.28 l6.12 0 z M69.52000000000001 17.36 c1.1333 0 2.0134 -0.37334 2.64 -1.12 s0.94 -1.8067 0.94 -3.18 c0 -1.5733 -0.33666 -2.75 -1.01 -3.53 s-1.71 -1.17 -3.11 -1.17 l-2.24 0 l0 9 l2.78 0 z"/></g><g id="SvgjsG1271" featureKey="shel4w-0" transform="matrix(1.3030056918239803,0,0,1.3030056918239803,36.28974826041757,262.70316825005)" fill="#fff"><path d="M3.18 20 c-0.62 0 -1.1 -0.5 -1.1 -1.1 l0 -11.8 c0 -0.62 0.48 -1.1 1.1 -1.1 l0 0 l0 0 l2.36 0 c3.86 0 6.98 3.14 6.98 6.98 c0 3.88 -3.12 7.02 -6.98 7.02 l-2.36 0 l0 0 l0 0 z M4.3 8.22 l0 9.56 l1.24 0 c2.64 -0.02 4.76 -2.14 4.76 -4.8 c0 -2.62 -2.12 -4.76 -4.76 -4.76 l-1.24 0 z M32.188 19.3 l-0.98 -2.6 l-4.86 0 l-0.98 2.6 c-0.18 0.44 -0.6 0.7 -1.04 0.7 c-0.14 0 -0.26 -0.02 -0.38 -0.06 c-0.58 -0.22 -0.86 -0.86 -0.66 -1.44 l4.42 -11.78 c0.18 -0.44 0.62 -0.72 1.06 -0.7 c0.46 -0.02 0.88 0.26 1.06 0.7 l4.42 11.78 c0.2 0.58 -0.08 1.22 -0.66 1.44 c-0.1 0.04 -0.24 0.06 -0.38 0.06 c-0.44 0 -0.86 -0.26 -1.02 -0.7 z M27.148 14.5 l3.24 0 l-1.62 -4.3 z M54.256 7.1 c0 0.6 -0.5 1.12 -1.1 1.12 l-3.18 0 l0 10.68 c0 0.62 -0.48 1.1 -1.1 1.1 c-0.6 0 -1.1 -0.48 -1.1 -1.1 l0 -10.68 l-3.16 0 c-0.62 0 -1.1 -0.52 -1.1 -1.12 c0 -0.62 0.48 -1.1 1.1 -1.1 l8.54 0 c0.6 0 1.1 0.48 1.1 1.1 z M73.284 19.3 l-0.98 -2.6 l-4.86 0 l-0.98 2.6 c-0.18 0.44 -0.6 0.7 -1.04 0.7 c-0.14 0 -0.26 -0.02 -0.38 -0.06 c-0.58 -0.22 -0.86 -0.86 -0.66 -1.44 l4.42 -11.78 c0.18 -0.44 0.62 -0.72 1.06 -0.7 c0.46 -0.02 0.88 0.26 1.06 0.7 l4.42 11.78 c0.2 0.58 -0.08 1.22 -0.66 1.44 c-0.1 0.04 -0.24 0.06 -0.38 0.06 c-0.44 0 -0.86 -0.26 -1.02 -0.7 z M68.244 14.5 l3.24 0 l-1.62 -4.3 z M100.4 20 c-0.62 0 -1.1 -0.5 -1.1 -1.1 l0 -11.8 c0 -0.62 0.48 -1.1 1.1 -1.1 l0.02 0 l0.04 0 l6.48 0 c0.58 0 1.1 0.48 1.1 1.1 s-0.52 1.12 -1.1 1.12 l-5.42 0 l0 3.66 l4.66 0 c0.6 0 1.1 0.52 1.1 1.1 c0 0.62 -0.5 1.12 -1.1 1.12 l-4.66 0 l0 3.68 l5.42 0 c0.58 0 1.1 0.5 1.1 1.12 c0 0.6 -0.52 1.1 -1.1 1.1 l-6.48 0 c-0.04 0 -0.04 -0.02 -0.04 -0.02 z M120.968 10.6 l0 8.3 c0 0.6 -0.5 1.1 -1.08 1.1 c-0.62 0 -1.1 -0.5 -1.1 -1.1 l0 -11.62 l0 -0.02 c-0.02 -0.34 0.14 -0.7 0.44 -0.92 c0.5 -0.34 1.18 -0.24 1.52 0.24 l6.46 8.94 l0 -8.24 c0 -0.58 0.48 -1.08 1.08 -1.08 s1.1 0.5 1.1 1.08 l0 11.62 c0 0.6 -0.5 1.1 -1.1 1.1 c-0.32 0 -0.62 -0.16 -0.82 -0.4 c-0.04 -0.04 -0.08 -0.08 -0.1 -0.12 z M148.556 20 c-4.06 0 -7.38 -3.18 -7.38 -7.18 c0 -4.02 3.32 -7.22 7.38 -7.22 c1.7 0 3.32 0.58 4.56 1.56 c0.52 0.38 0.6 1.12 0.22 1.62 c-0.38 0.48 -1.12 0.58 -1.62 0.18 c-0.86 -0.66 -1.96 -1.08 -3.16 -1.08 c-1.44 0 -2.7 0.54 -3.6 1.46 c-0.94 0.9 -1.5 2.12 -1.5 3.48 c0 1.32 0.56 2.54 1.5 3.44 c0.9 0.92 2.16 1.46 3.6 1.46 c1 0 1.94 -0.3 2.74 -0.76 l0 -2.74 l-2.86 0 c-0.62 0 -1.14 -0.52 -1.14 -1.14 c0 -0.64 0.52 -1.12 1.14 -1.12 l3.94 0 l0.02 0 l0.02 0 c0.64 0 1.16 0.48 1.16 1.12 l0 4.42 c0 0.14 -0.04 0.22 -0.06 0.34 c-0.02 0.04 -0.02 0.06 -0.04 0.1 l0 0.02 c-0.06 0.18 -0.18 0.34 -0.38 0.48 c-1.26 0.98 -2.84 1.56 -4.54 1.56 z M165.824 18.9 l0 -11.8 c0 -0.62 0.48 -1.1 1.1 -1.1 l0 0 c0.6 0 1.12 0.48 1.12 1.1 l0 0 l0 11.8 c0 0.62 -0.52 1.1 -1.12 1.1 l0 0 c-0.62 0 -1.1 -0.48 -1.1 -1.1 l0 0 z M181.592 10.6 l0 8.3 c0 0.6 -0.5 1.1 -1.08 1.1 c-0.62 0 -1.1 -0.5 -1.1 -1.1 l0 -11.62 l0 -0.02 c-0.02 -0.34 0.14 -0.7 0.44 -0.92 c0.5 -0.34 1.18 -0.24 1.52 0.24 l6.46 8.94 l0 -8.24 c0 -0.58 0.48 -1.08 1.08 -1.08 s1.1 0.5 1.1 1.08 l0 11.62 c0 0.6 -0.5 1.1 -1.1 1.1 c-0.32 0 -0.62 -0.16 -0.82 -0.4 c-0.04 -0.04 -0.08 -0.08 -0.1 -0.12 z M203.52 20 c-0.62 0 -1.1 -0.5 -1.1 -1.1 l0 -11.8 c0 -0.62 0.48 -1.1 1.1 -1.1 l0.02 0 l0.04 0 l6.48 0 c0.58 0 1.1 0.48 1.1 1.1 s-0.52 1.12 -1.1 1.12 l-5.42 0 l0 3.66 l4.66 0 c0.6 0 1.1 0.52 1.1 1.1 c0 0.62 -0.5 1.12 -1.1 1.12 l-4.66 0 l0 3.68 l5.42 0 c0.58 0 1.1 0.5 1.1 1.12 c0 0.6 -0.52 1.1 -1.1 1.1 l-6.48 0 c-0.04 0 -0.04 -0.02 -0.04 -0.02 z"/></g>
			</g>
		</svg>
	